<svg id="Layer_1" xmlns="http://www.w3.org/2000/svg" viewBox="0 0 140 30"><style>.st0{fill:#ccc}</style><path class="st0" d="M25.2 30h8V18h5v-7h-5V7h6V0h-14v30zM40.1 0v30h14v-7h-6v-5h5v-7h-5V7h6V0h-14M.2 0h8v23h7v7H.2V0zm16 0h8v30h-8V0zM114 30h14v-7h-6v-5h5v-7h-5V7h6V0h-14v30zM59.1 7h5v23h7V7h5V0h-17v7zm18-7h8v30h-8V0zm22 15L97 0H86v30h7V13.3L96.2 30h5.7l3.2-16.6V30h7V0h-11l-2 15zm33-11.8c0 .6.5.9 1 .9.6 0 .9-.3.9-.6 0-.2-.1-.4-.3-.5-.3-.1-.7-.2-1.2-.3-.7-.2-.9-.6-.9-1 0-.8.8-1.2 1.5-1.2.8 0 1.6.4 1.6 1.3h-.7c0-.5-.4-.7-.9-.7-.3 0-.7.1-.7.5 0 .3.2.4.5.5.1 0 1 .2 1.2.3.5.2.8.6.8 1 0 .9-.8 1.3-1.6 1.3-.9 0-1.7-.4-1.7-1.4l.5-.1m3.5-2.7h1l1.1 3.2 1.1-3.2h1v4.1h-.7V1.4L138 4.6h-.6l-1.1-3.1v3.1h-.7V.5"/></svg>