<svg id="Layer_1" xmlns="http://www.w3.org/2000/svg" xmlns:xlink="http://www.w3.org/1999/xlink" viewBox="0 0 35 35"><style>.st0{opacity:.8;fill:#fff}.st1{clip-path:url(#SVGID_2_)}.st2{clip-path:url(#SVGID_6_)}.st3{clip-path:url(#SVGID_8_);fill:#007faa}.st4{clip-path:url(#SVGID_10_)}</style><circle class="st0" cx="17.5" cy="17.5" r="17.5"/><defs><path id="SVGID_1_" d="M14.8 8.9c-.7-.7-1.3-.4-1.3.5v16.2c0 1 .6 1.2 1.3.5l8.1-7.4c.7-.7.7-1.8 0-2.5l-8.1-7.3z"/></defs><clipPath id="SVGID_2_"><use xlink:href="#SVGID_1_" overflow="visible"/></clipPath><g class="st1"><defs><path id="SVGID_3_" d="M7.5 7.5h20v20h-20z"/></defs><clipPath id="SVGID_4_"><use xlink:href="#SVGID_3_" overflow="visible"/></clipPath></g><g><defs><path id="SVGID_5_" d="M14.8 8.9c-.7-.7-1.3-.4-1.3.5v16.2c0 1 .6 1.2 1.3.5l8.1-7.4c.7-.7.7-1.8 0-2.5l-8.1-7.3z"/></defs><use xlink:href="#SVGID_5_" overflow="visible" fill-rule="evenodd" clip-rule="evenodd" fill="#007faa"/><clipPath id="SVGID_6_"><use xlink:href="#SVGID_5_" overflow="visible"/></clipPath><g class="st2"><defs><path id="SVGID_7_" d="M7.5 7.5h20v20h-20z"/></defs><use xlink:href="#SVGID_7_" overflow="visible" fill="#007faa"/><clipPath id="SVGID_8_"><use xlink:href="#SVGID_7_" overflow="visible"/></clipPath><path class="st3" d="M8.5 3.5h20v28h-20z"/></g></g><g><defs><path id="SVGID_9_" d="M14.8 8.9c-.7-.7-1.3-.4-1.3.5v16.2c0 1 .6 1.2 1.3.5l8.1-7.4c.7-.7.7-1.8 0-2.5l-8.1-7.3z"/></defs><clipPath id="SVGID_10_"><use xlink:href="#SVGID_9_" overflow="visible"/></clipPath><g class="st4"><defs><path id="SVGID_11_" d="M7.5 7.5h20v20h-20z"/></defs><clipPath id="SVGID_12_"><use xlink:href="#SVGID_11_" overflow="visible"/></clipPath></g></g></svg>