<svg id="Layer_1" xmlns="http://www.w3.org/2000/svg" xmlns:xlink="http://www.w3.org/1999/xlink" viewBox="0 0 183 112"><style>.st0{opacity:5e-2;clip-path:url(#SVGID_2_)}.st1{fill:#333}</style><defs><path id="SVGID_1_" d="M.3.2h182.3v111.5H.3z"/></defs><clipPath id="SVGID_2_"><use xlink:href="#SVGID_1_" overflow="visible"/></clipPath><g class="st0"><path class="st1" d="M186.8 89.5c-1.2-7.6-3.9-15.2-7.8-21.8-1.5 5.4-5.7 9.7-11.1 11.4.8 1.7 1.5 3.4 2.1 5.2-2.6.1-5.3.1-7.9-.1-4.2-5.8-12.9-8.9-20.1-3.4-1.8-3.8-3.1-7.8-3.8-11.9 3.2.2 6.3.4 9.5.9-.9-2.1-1.4-4.3-1.4-6.7 0-3 .8-5.9 2.3-8.4-6.1-.7-12.3-.9-18.5-1.4-4.2-.3-7.5 3.7-7.6 7.6-.4 10.7 2.7 20.6 7.6 29.9-4.8 3.9-9.4 7.4-14.3 11.4-6.5-6.2-13.8-11.7-21.1-16.6-3.8-2.6-8.2-1.1-11.5 1.5-9.9 7.8-19.8 15.5-29.7 23.3-1.5 1.2-2.4 2.5-2.9 3.9h-8.4c-12.2 0-12.2 18.9 0 18.9h72c5.7 0 9.2-2.9 11.1-4.5 13.2-11.4 21.7-17.2 34.9-28.6.3-.3.6-.5.8-.8 6.2.3 12.4.1 18.5-.2 5.3-.2 8.1-4.6 7.3-9.6zM79.1 114.3c3.7-2.9 7.5-5.8 11.2-8.8 3.8 2.7 7.5 5.6 10.8 8.8h-22z"/><path class="st1" d="M163.3 77c8.1 0 14.7-6.6 14.7-14.7s-6.6-14.7-14.7-14.7-14.7 6.6-14.7 14.7c0 8 6.6 14.7 14.7 14.7z"/></g></svg>