<svg id="Layer_1" xmlns="http://www.w3.org/2000/svg" xmlns:xlink="http://www.w3.org/1999/xlink" viewBox="0 0 18 18"><style>.st0{clip-path:url(#SVGID_2_)}.st1{clip-path:url(#SVGID_4_);fill:#ccc}</style><defs><path id="SVGID_1_" d="M11.6 7.3V5.7c0-1.4-1.2-2.5-2.6-2.5S6.4 4.3 6.4 5.7v1.6c0 1.4 1.2 2.5 2.6 2.5s2.6-1.1 2.6-2.5zm-.9 0c0 .8-.8 1.6-1.7 1.6s-1.7-.7-1.7-1.6V5.7c0-.8.8-1.6 1.7-1.6s1.7.7 1.7 1.6v1.6zm-6.9 8.1v-1.1C3.8 13 4.9 12 6.4 12h5.3c1.4 0 2.6 1 2.6 2.3v1.1h.9v-1.1c0-1.8-1.6-3.3-3.5-3.3H6.4c-1.9 0-3.5 1.5-3.5 3.3v1.1h.9zM9 .9c4.4 0 8.1 3.6 8.1 8.1 0 4.4-3.6 8.1-8.1 8.1S.9 13.4.9 9C.9 4.6 4.6.9 9 .9zM9 0C4 0 0 4 0 9s4 9 9 9 9-4 9-9-4-9-9-9z"/></defs><use xlink:href="#SVGID_1_" overflow="visible" fill="#ccc"/><clipPath id="SVGID_2_"><use xlink:href="#SVGID_1_" overflow="visible"/></clipPath><g class="st0"><defs><path id="SVGID_3_" d="M-1-1h20v20H-1z"/></defs><use xlink:href="#SVGID_3_" overflow="visible" fill="#ccc"/><clipPath id="SVGID_4_"><use xlink:href="#SVGID_3_" overflow="visible"/></clipPath><path class="st1" d="M-5-5h28v28H-5z"/></g></svg>