<svg id="Layer_1" xmlns="http://www.w3.org/2000/svg" viewBox="0 0 20.5 18"><style>.st0{fill:#007faa}</style><path class="st0" d="M18.8 1.7C17.7.6 16.3 0 14.8 0s-2.9.6-4 1.7l-.6.6-.5-.6C8.6.6 7.2 0 5.7 0s-2.9.6-4 1.7C.6 2.7 0 4.2 0 5.7s.6 2.9 1.7 4l8.2 8.2c.1.1.3.2.4.2s.3-.1.4-.2l8.2-8.1c1.1-1.1 1.7-2.5 1.7-4-.1-1.6-.7-3.1-1.8-4.1zM18 8.9l-7.8 7.7-7.7-7.7c-.9-.9-1.3-2-1.3-3.2s.5-2.3 1.3-3.2c.8-.8 2-1.3 3.2-1.3 1.2 0 2.3.5 3.2 1.3l1 1c.2.2.6.2.8 0l1-1c.9-.9 2-1.3 3.2-1.3 1.2 0 2.3.5 3.2 1.3.9.9 1.3 2 1.3 3.2-.1 1.2-.6 2.3-1.4 3.2z"/></svg>