<svg id="Layer_1" xmlns="http://www.w3.org/2000/svg" viewBox="0 0 230.2 49.4"><style>.st0{fill:#ccc}</style><path class="st0" d="M41.2 49.4h13.2V29.6h8.2V18.1h-8.2v-6.6h9.9V0H41.2v49.4zM65.9 0v49.4H89V37.9H79v-8.2h8.2V18.1H79v-6.6h9.9V0h-23M0 0h13.2v37.9h11.5v11.5H0V0zm26.3 0h13.2v49.4H26.3V0zm161.4 49.4h23.1V37.9H201v-8.2h8.2V18.1H201v-6.6h9.8V0h-23.1v49.4zM97.2 11.5h8.2v37.9h11.5V11.5h8.2V0h-28v11.5zM126.8 0H140v49.4h-13.2V0zM163 24.7L159.7 0h-18.1v49.4h11.5V21.9l5.2 27.4h9.4l5.2-27.4v27.4h11.5V0h-18.1L163 24.7zm54.5-19.4c0 1 .8 1.4 1.7 1.4 1 0 1.4-.5 1.4-1 0-.4-.2-.7-.6-.8-.5-.2-1.1-.3-2-.6-1.1-.3-1.5-1-1.5-1.7 0-1.3 1.3-2 2.5-2 1.4 0 2.6.7 2.6 2.1h-1.2c0-.9-.6-1.2-1.4-1.2-.5 0-1.2.2-1.2.9 0 .5.3.7.8.9.1 0 1.6.4 1.9.5.9.3 1.3 1 1.3 1.7 0 1.5-1.3 2.1-2.7 2.1-1.5 0-2.8-.7-2.8-2.4l1.2.1m5.7-4.5h1.7l1.8 5.3 1.8-5.3h1.6v6.7H229V2.3l-1.9 5.2h-1l-1.9-5.2v5.2h-1.1l.1-6.7"/></svg>