<svg id="Layer_1" xmlns="http://www.w3.org/2000/svg" xmlns:xlink="http://www.w3.org/1999/xlink" viewBox="0 0 18 18"><style>.st0{clip-path:url(#SVGID_2_)}.st1{clip-path:url(#SVGID_4_);fill:#ccc}</style><defs><path id="SVGID_1_" d="M14.6 16.3c0 .3-.2.6-.6.6H3.9c-.3 0-.6-.2-.6-.6V9.6c.1-.4.3-.6.6-.6h10.2c.3 0 .6.2.6.6v6.7zm-9-11.8c0-1.9 1.5-3.4 3.4-3.4s3.4 1.5 3.4 3.4v3.4H5.6V4.5zm8.5 3.4h-.6V4.5C13.5 2 11.5 0 9 0S4.5 2 4.5 4.5v3.4h-.6c-.9 0-1.6.8-1.6 1.7v6.8c0 .8.7 1.6 1.6 1.6H14c.9 0 1.7-.8 1.7-1.7V9.6c.1-.9-.7-1.7-1.6-1.7z"/></defs><use xlink:href="#SVGID_1_" overflow="visible" fill-rule="evenodd" clip-rule="evenodd" fill="#ccc"/><clipPath id="SVGID_2_"><use xlink:href="#SVGID_1_" overflow="visible"/></clipPath><g class="st0"><defs><path id="SVGID_3_" d="M-2.3-2.3h22.5v22.5H-2.3z"/></defs><use xlink:href="#SVGID_3_" overflow="visible" fill="#ccc"/><clipPath id="SVGID_4_"><use xlink:href="#SVGID_3_" overflow="visible"/></clipPath><path class="st1" d="M-3.4-5.6h24.8v29.3H-3.4z"/></g></svg>