<svg id="Layer_1" xmlns="http://www.w3.org/2000/svg" xmlns:xlink="http://www.w3.org/1999/xlink" viewBox="0 0 183 112"><style>.st0{opacity:5e-2;clip-path:url(#SVGID_2_)}.st1{fill:#333}</style><defs><path id="SVGID_1_" d="M.3.2h182.3v111.5H.3z"/></defs><clipPath id="SVGID_2_"><use xlink:href="#SVGID_1_" overflow="visible"/></clipPath><path class="st0 st1" d="M68.9 145.9l135.3-61c1.4-.6 2-2.2 1.4-3.6l-14.7-32.6c-.6-1.4-2.2-2-3.6-1.4L52 108.4c-.7.3-1.2.9-1.4 1.5-.2.6-.2 1.4.1 2.1l14.7 32.6c.5 1.4 2.1 2 3.5 1.3zm-12.3-33.7l6.3-2.8 2.3 5.1c.6 1.4 2.2 2 3.6 1.4 1.4-.6 2-2.2 1.4-3.6l-2.3-5.1 6.4-2.9 2.3 5.1c.6 1.4 2.2 2 3.6 1.4 1.4-.6 2-2.2 1.4-3.6l-2.3-5.1 6.4-2.9 2.3 5.1c.6 1.4 2.2 2 3.6 1.4 1.4-.6 2-2.2 1.4-3.6L90.4 97l6.4-2.9 4.5 9.9c.6 1.4 2.2 2 3.6 1.4 1.4-.6 2-2.2 1.4-3.6l-4.5-9.9 6.4-2.9 2.3 5.1c.6 1.4 2.2 2 3.6 1.4 1.4-.6 2-2.2 1.4-3.6l-2.3-5.1 6.4-2.9 2.3 5.1c.6 1.4 2.2 2 3.6 1.4 1.4-.6 2-2.2 1.4-3.6l-2.3-5.1 6.4-2.9 2 5.2c.6 1.4 2.2 2 3.6 1.4 1.4-.6 2-2.2 1.4-3.6l-2.3-5.1 6.4-2.9 4.5 9.9c.6 1.4 2.2 2 3.6 1.4 1.4-.6 2-2.2 1.4-3.6l-4.5-9.9 6.4-2.9 2.3 5.1c.6 1.4 2.2 2 3.6 1.4 1.4-.6 2-2.2 1.4-3.6l-2.3-5.1 6.4-2.9 2.3 5.1c.6 1.4 2.2 2 3.6 1.4 1.4-.6 2-2.2 1.4-3.6l-2.3-5.1 6.4-2.9 2.3 5.1c.6 1.4 2.2 2 3.6 1.4 1.4-.6 2-2.2 1.4-3.6l-2.3-5.1 6.3-2.8 8.5 19L159 88.9c-.7.3-1.2.9-1.4 1.5-.2.6-.2 1.4.1 2.1.6 1.4 2.2 2 3.6 1.4l36.5-16.5 1.7 3.8-130.4 58.7-12.5-27.7z"/></svg>