<svg id="Layer_1" xmlns="http://www.w3.org/2000/svg" xmlns:xlink="http://www.w3.org/1999/xlink" viewBox="0 0 200 200"><style>.st0{clip-path:url(#SVGID_2_)}.st1{clip-path:url(#SVGID_4_);fill:#ced3d6}</style><defs><path id="SVGID_1_" d="M57.8 74.2c-4.5-4.5-4.5-11.8 0-16.3s11.8-4.5 16.3 0 4.5 11.8 0 16.3-11.8 4.5-16.3 0zM123 25.3c-27-27-70.8-27-97.8 0s-27 70.8 0 97.8c21.3 21.3 53 25.8 78.7 13.5l51.6 51.6c9 9 23.6 9 32.6 0 9.1-9.1 9-23.6 0-32.6L136.6 104c12.2-25.7 7.7-57.5-13.6-78.7zm-73.3 57c9 9 23.6 9 32.6 0s9-23.6 0-32.6-23.6-9-32.6 0-9 23.6 0 32.6zm65.2-48.9C132.1 50.7 136.7 77 126.2 99l-3.5 7.4 5.8 5.8 51.6 51.6c4.5 4.5 4.5 11.9 0 16.3-4.5 4.5-11.8 4.5-16.3 0l-51.6-51.6-5.8-5.8-7.4 3.5c-22 10.5-48.3 6-65.6-11.3-22.5-22.5-22.5-59 0-81.5s59-22.5 81.5 0z"/></defs><use xlink:href="#SVGID_1_" overflow="visible" fill-rule="evenodd" clip-rule="evenodd" fill="#ced3d6"/><clipPath id="SVGID_2_"><use xlink:href="#SVGID_1_" overflow="visible"/></clipPath><g class="st0"><defs><path id="SVGID_3_" transform="rotate(-45.001 106.744 106.756)" d="M-8.5-8.5H222V222H-8.5z"/></defs><use xlink:href="#SVGID_3_" overflow="visible" fill="#ced3d6"/><clipPath id="SVGID_4_"><use xlink:href="#SVGID_3_" overflow="visible"/></clipPath><path transform="rotate(-45.001 106.744 106.756)" class="st1" d="M-20-66.1h253.6v345.8H-20z"/></g></svg>