<svg id="Layer_1" xmlns="http://www.w3.org/2000/svg" viewBox="0 0 16 16"><style>.st0{fill:#fff}</style><path class="st0" d="M13.4 2.6c-1.2-1.2-3.1-1.2-4.2 0L7.1 4.7c-.2.2-.2.5 0 .6.2.2.5.2.6 0l2.1-2.1c.4-.4.9-.6 1.5-.6s1.1.2 1.5.6.6.9.6 1.5-.2 1.1-.6 1.5L10 8.9c-.8.8-2.1.8-2.9 0-.2-.2-.5-.2-.6 0-.2.2-.2.5 0 .6.6.6 1.3.9 2.1.9s1.5-.3 2.1-.9l2.8-2.8c.6-.6.9-1.3.9-2.1-.1-.7-.4-1.5-1-2z"/><path class="st0" d="M7.9 11l-1.8 1.8c-.4.4-.9.6-1.5.6s-1.1-.2-1.5-.6c-.8-.8-.8-2.1 0-2.9l2.6-2.6c.4-.4.9-.6 1.5-.6s1.1.2 1.5.6c.2.2.5.2.6 0 .2-.2.2-.5 0-.6-1.2-1.2-3.1-1.2-4.2 0L2.6 9.2c-.6.6-.9 1.3-.9 2.1s.3 1.5.9 2.1c.6.6 1.3.9 2.1.9s1.5-.3 2.1-.9l1.8-1.8c.2-.2.2-.5 0-.6-.2-.2-.5-.2-.7 0z"/></svg>