<svg id="Layer_1" xmlns="http://www.w3.org/2000/svg" xmlns:xlink="http://www.w3.org/1999/xlink" viewBox="0 0 200 200"><style>.st0{clip-path:url(#SVGID_2_)}.st1{clip-path:url(#SVGID_4_);fill:#ced3d6}</style><defs><path id="SVGID_1_" d="M99.3 23.8c-15.7 0-28.6 12.8-28.6 28.6v9.5c0 15.7 12.8 28.6 28.6 28.6s28.6-12.8 28.6-28.6v-9.5c-.1-15.8-12.9-28.6-28.6-28.6zm0 85.6c-26.3 0-47.6-21.3-47.6-47.6v-9.5C51.7 26.1 73 4.7 99.3 4.7s47.6 21.3 47.6 47.6v9.5c0 26.3-21.4 47.6-47.6 47.6zm-75.5 66.7h150.8c-3.4-21.7-18-38.1-35.5-38.1H59.4c-17.5 0-32.2 16.4-35.6 38.1zm170.6 19H4.1v-9.5c0-36.7 24.8-66.6 55.3-66.6h79.7c30.5 0 55.3 29.9 55.3 66.6v9.5z"/></defs><use xlink:href="#SVGID_1_" overflow="visible" fill-rule="evenodd" clip-rule="evenodd" fill="#ced3d6"/><clipPath id="SVGID_2_"><use xlink:href="#SVGID_1_" overflow="visible"/></clipPath><g class="st0"><defs><path id="SVGID_3_" d="M-91.1-90.4h380.7v380.7H-91.1z"/></defs><use xlink:href="#SVGID_3_" overflow="visible" fill="#ced3d6"/><clipPath id="SVGID_4_"><use xlink:href="#SVGID_3_" overflow="visible"/></clipPath><path class="st1" d="M-91.1-90.4h380.7v380.7H-91.1z"/></g></svg>