<svg id="Layer_1" xmlns="http://www.w3.org/2000/svg" xmlns:xlink="http://www.w3.org/1999/xlink" viewBox="0 0 16 16"><style>.st0{clip-path:url(#SVGID_2_)}.st1{clip-path:url(#SVGID_4_);fill:#007faa}</style><defs><path id="SVGID_1_" d="M15 14.8l-.2.2c-.3.3-.7.3-1 0l-3.2-3.2 1.2-1.2 3.2 3.2c.3.3.3.8 0 1zM2.2 9C.3 7.1.3 4.1 2.2 2.2S7.1.3 9 2.2c1.9 1.9 1.9 4.9 0 6.8-1.9 1.9-4.9 1.9-6.8 0zm13.4 4.3l-3.5-3.5-.3-.3-.3.3-.5.6-1.2-1.2c1.9-2.2 1.8-5.5-.3-7.6-2.2-2.2-5.7-2.2-7.9 0s-2.2 5.7 0 7.9c2.1 2.1 5.4 2.2 7.6.3l1.2 1.1-.6.6-.3.3.3.3 3.5 3.5c.6.6 1.5.6 2 0l.2-.2c.6-.6.6-1.5.1-2.1z"/></defs><use xlink:href="#SVGID_1_" overflow="visible" fill-rule="evenodd" clip-rule="evenodd" fill="#007faa"/><clipPath id="SVGID_2_"><use xlink:href="#SVGID_1_" overflow="visible"/></clipPath><g class="st0"><defs><path id="SVGID_3_" d="M0 0h16v16H0z"/></defs><use xlink:href="#SVGID_3_" overflow="visible" fill="#007faa"/><clipPath id="SVGID_4_"><use xlink:href="#SVGID_3_" overflow="visible"/></clipPath><path class="st1" d="M-4-4h24v24H-4z"/></g></svg>